<svg xmlns="http://www.w3.org/2000/svg" version="1.1" xmlns:xlink="http://www.w3.org/1999/xlink" width="200" height="200"><svg xmlns="http://www.w3.org/2000/svg" version="1.1" xmlns:xlink="http://www.w3.org/1999/xlink" viewBox="0 0 200 200"><rect width="200" height="200" fill="url('#gradient')"></rect><defs><linearGradient id="SvgjsLinearGradient1006" gradientTransform="rotate(335 0.5 0.5)"><stop offset="0%" stop-color="#deded5"></stop><stop offset="100%" stop-color="#4f4f4a"></stop></linearGradient></defs><g><g fill="#1b3855" transform="matrix(2.5592890863648985,0,0,2.5592890863648985,10.07765777485632,118.1881232448367)" stroke="#0e5278" stroke-width="0.2"><path d="M9.98 0L9.15-2.66L4.45-2.66L3.63 0L-0.03 0L5.19-14.22L8.41-14.22L13.66 0L9.98 0ZM6.80-10.23L5.27-5.30L8.33-5.30L6.80-10.23ZM18.35-14.22L18.35 0L14.93 0L14.93-14.22L18.35-14.22ZM22.62-3.19L22.62-3.19Q23.40-3.19 23.92-2.73Q24.43-2.27 24.43-1.54Q24.43-0.82 23.92-0.36Q23.40 0.11 22.62 0.11L22.62 0.11Q21.83 0.11 21.31-0.36Q20.80-0.83 20.80-1.54Q20.80-2.26 21.31-2.72Q21.83-3.19 22.62-3.19ZM30.43-14.22L30.43 0L27.01 0L27.01-14.22L30.43-14.22ZM41.89 0L41.06-2.66L36.37-2.66L35.55 0L31.88 0L37.10-14.22L40.32-14.22L45.58 0L41.89 0ZM38.71-10.23L37.19-5.30L40.24-5.30L38.71-10.23ZM53.95-3.78L53.95-3.78Q53.95-4.53 53.41-4.95Q52.88-5.37 51.54-5.82Q50.21-6.27 49.36-6.69L49.36-6.69Q46.59-8.05 46.59-10.42L46.59-10.42Q46.59-11.60 47.28-12.50Q47.97-13.41 49.23-13.91Q50.49-14.41 52.06-14.41L52.06-14.41Q53.59-14.41 54.81-13.87Q56.03-13.32 56.70-12.31Q57.37-11.30 57.37-10L57.37-10L53.96-10Q53.96-10.87 53.42-11.35Q52.89-11.83 51.98-11.83L51.98-11.83Q51.06-11.83 50.53-11.42Q50-11.02 50-10.39L50-10.39Q50-9.84 50.59-9.40Q51.17-8.96 52.65-8.48Q54.12-8.01 55.07-7.46L55.07-7.46Q57.37-6.13 57.37-3.80L57.37-3.80Q57.37-1.93 55.97-0.87Q54.56 0.20 52.11 0.20L52.11 0.20Q50.38 0.20 48.98-0.42Q47.58-1.04 46.87-2.12Q46.16-3.20 46.16-4.61L46.16-4.61L49.60-4.61Q49.60-3.47 50.19-2.92Q50.78-2.38 52.11-2.38L52.11-2.38Q52.96-2.38 53.45-2.75Q53.95-3.12 53.95-3.78ZM63.81 0L59.13 0L59.13-14.22L63.71-14.22Q65.60-14.22 67.10-13.36Q68.60-12.51 69.45-10.95Q70.29-9.39 70.30-7.46L70.30-7.46L70.30-6.81Q70.30-4.85 69.48-3.31Q68.65-1.76 67.15-0.88Q65.65-0.01 63.81 0L63.81 0ZM63.71-11.57L62.56-11.57L62.56-2.64L63.75-2.64Q65.22-2.64 66.02-3.69Q66.81-4.74 66.81-6.81L66.81-6.81L66.81-7.42Q66.81-9.48 66.02-10.53Q65.22-11.57 63.71-11.57L63.71-11.57Z"></path></g></g></svg><style>@media (prefers-color-scheme: light) { :root { filter: none; } }
@media (prefers-color-scheme: dark) { :root { filter: none; } }
</style></svg>